<?xml version="1.0" standalone="no"?>
<!DOCTYPE svg PUBLIC "-//W3C//DTD SVG 20010904//EN"
 "http://www.w3.org/TR/2001/REC-SVG-20010904/DTD/svg10.dtd">
<svg version="1.0" xmlns="http://www.w3.org/2000/svg"
 width="700.000000pt" height="700.000000pt" viewBox="0 0 700.000000 700.000000"
 preserveAspectRatio="xMidYMid meet">
<metadata>
Created by potrace 1.14, written by Peter Selinger 2001-2017
</metadata>
<g transform="translate(0.000000,700.000000) scale(0.100000,-0.100000)"
fill="#000000" stroke="none">
<path d="M145 5723 c-41 -11 -89 -49 -121 -98 -19 -29 -19 -65 -22 -1820 -3
-1998 -8 -1840 68 -1909 49 -44 77 -49 283 -50 92 0 167 -3 168 -6 1 -3 3 -30
5 -60 12 -164 80 -300 198 -396 220 -178 528 -163 726 36 106 105 157 227 159
375 l1 50 1890 1 1890 1 1 -59 c1 -32 2 -61 3 -65 1 -5 5 -25 9 -46 19 -94 88
-209 168 -281 123 -110 316 -160 484 -124 122 26 255 120 331 234 47 72 84
186 87 272 l2 67 196 1 c182 1 199 3 235 23 22 12 51 38 64 58 l25 37 3 574
c2 491 0 578 -12 597 -8 12 -79 75 -158 140 -79 64 -152 124 -163 133 -11 10
-58 48 -105 87 -47 38 -97 81 -111 95 -21 19 -257 424 -461 790 -191 340 -199
352 -252 369 -17 6 -134 10 -261 9 -126 0 -229 1 -228 3 0 2 6 16 13 30 10 22
2 56 -55 250 -37 123 -78 262 -91 309 -96 326 -100 338 -145 364 -25 15 -230
16 -2416 15 -1313 -1 -2397 -4 -2408 -6z"/>
</g>
</svg>
