<svg viewBox="0 -93 512 512" xmlns="http://www.w3.org/2000/svg"><path d="m470.378906 155.839844-45.941406-80.699219c-1.941406-2.554687-4.96875-4.050781-8.179688-4.050781h-416.257812v198.210937c0 8.050781 6.527344 14.578125 14.578125 14.578125h484.339844c7.222656 0 13.082031-5.855468 13.082031-13.082031v-77.21875c0-2.3125-1.039062-4.5-2.824219-5.964844zm0 0" fill="#efefef"/><path d="m509.175781 187.613281-38.800781-31.773437-45.9375-80.699219c-1.945312-2.550781-4.96875-4.050781-8.179688-4.050781h-59.667968l54.464844 96.664062 38.796874 31.773438c1.789063 1.464844 2.824219 3.652344 2.824219 5.964844v77.21875c0 .394531-.023437.78125-.058593 1.167968h46.300781c7.222656 0 13.082031-5.855468 13.082031-13.082031v-77.21875c0-2.308594-1.035156-4.5-2.824219-5.964844zm0 0" fill="#e2e2e2"/><path d="m461.921875 259.222656c-15.503906-15.503906-40.640625-15.503906-56.144531 0s-15.503906 40.640625 0 56.144532c15.503906 15.5 40.640625 15.5 56.144531 0 15.503906-15.503907 15.503906-40.640626 0-56.144532zm0 0" fill="#31363b"/><path d="m433.855469 304.445312c-4.582031 0-8.890625-1.785156-12.128907-5.023437-6.6875-6.6875-6.6875-17.570313 0-24.257813 3.238282-3.238281 7.546876-5.023437 12.128907-5.023437s8.886719 1.785156 12.128906 5.023437c3.238281 3.242188 5.023437 7.550782 5.023437 12.128907 0 4.582031-1.785156 8.890625-5.023437 12.128906-3.242187 3.238281-7.546875 5.023437-12.128906 5.023437zm0 0" fill="#e2e2e2"/><path d="m512 208.3125h-28.363281c-5.15625 0-8.972657 4.796875-7.808594 9.820312l3.734375 16.125c.839844 3.632813 4.078125 6.207032 7.808594 6.207032h24.628906zm0 0" fill="#efa335"/><path d="m380.8125 71.089844c2.964844 0 5.09375-2.855469 4.25-5.699219l-17.523438-59.0625c-1.105468-3.75-4.550781-6.328125-8.464843-6.328125h-344.496094c-8.050781 0-14.578125 6.527344-14.578125 14.578125v254.722656c0 8.050781 6.527344 14.578125 14.578125 14.578125h297.703125v-205.496094c0-4.03125 3.265625-7.292968 7.292969-7.292968zm0 0" fill="#fc4e51"/><path d="m253.128906 73.945312v209.933594h59.152344v-205.496094c0-4.03125 3.265625-7.292968 7.292969-7.292968h-63.585938c-1.578125 0-2.859375 1.277344-2.859375 2.855468zm0 0" fill="#ea3942"/><path d="m385.0625 65.390625-17.523438-59.0625c-1.105468-3.75-4.550781-6.328125-8.464843-6.328125h-59.148438c3.910157 0 7.355469 2.574219 8.460938 6.328125l19.214843 64.761719h53.210938c2.964844 0 5.09375-2.855469 4.25-5.699219zm0 0" fill="#ea3942"/><path d="m338.105469 103.050781v59.792969c0 1.179688.957031 2.136719 2.136719 2.136719h86.570312c6.578125 0 10.710938-7.101563 7.453125-12.820313l-28.554687-50.167968c-.382813-.667969-1.089844-1.082032-1.859376-1.082032h-63.609374c-1.179688 0-2.136719.957032-2.136719 2.140625zm0 0" fill="#33d8dd"/><path d="m106.214844 259.21875c-15.503906-15.503906-40.640625-15.503906-56.144532 0-15.503906 15.503906-15.503906 40.640625 0 56.144531 15.503907 15.503907 40.640626 15.503907 56.144532 0 15.503906-15.503906 15.503906-40.640625 0-56.144531zm0 0" fill="#31363b"/><path d="m78.144531 304.445312c-4.582031 0-8.886719-1.785156-12.128906-5.023437-6.6875-6.6875-6.6875-17.570313 0-24.257813 3.242187-3.238281 7.546875-5.023437 12.128906-5.023437s8.886719 1.785156 12.128907 5.023437c3.242187 3.242188 5.023437 7.550782 5.023437 12.128907 0 4.582031-1.785156 8.890625-5.023437 12.128906-3.238282 3.238281-7.546876 5.023437-12.128907 5.023437zm0 0" fill="#e2e2e2"/><path d="m31.953125 73.753906h248.164063v127.90625h-248.164063zm0 0" fill="#f3e8d7"/><path d="m220.792969 73.753906h59.324219v127.90625h-59.324219zm0 0" fill="#e5d8c6"/><path d="m48.066406 121.863281c-14.625 0-26.484375-11.855469-26.484375-26.484375v-13.898437h52.972657v13.898437c0 14.628906-11.859376 26.484375-26.488282 26.484375zm0 0" fill="#efa335"/><path d="m101.039062 121.863281c-14.628906 0-26.484374-11.855469-26.484374-26.484375v-13.898437h52.972656v13.898437c-.003906 14.628906-11.859375 26.484375-26.488282 26.484375zm0 0" fill="#ffc064"/><path d="m154.011719 121.863281c-14.628907 0-26.488281-11.855469-26.488281-26.484375v-13.898437h52.972656v13.898437c0 14.628906-11.855469 26.484375-26.484375 26.484375zm0 0" fill="#efa335"/><path d="m206.984375 121.863281c-14.628906 0-26.488281-11.855469-26.488281-26.484375v-13.898437h52.972656v13.898437c0 14.628906-11.859375 26.484375-26.484375 26.484375zm0 0" fill="#ffc064"/><path d="m259.953125 121.863281c-14.628906 0-26.484375-11.855469-26.484375-26.484375v-13.898437h52.972656v13.898437c0 14.628906-11.859375 26.484375-26.488281 26.484375zm0 0" fill="#efa335"/><path d="m271.796875 44.746094c-1.015625-2.554688-3.492187-4.234375-6.242187-4.234375h-223.089844c-2.75 0-5.222656 1.679687-6.242188 4.234375l-14.640625 36.734375h264.859375zm0 0" fill="#fd8f31"/><path d="m25.722656 194.675781h260.40625c2.335938 0 4.226563 1.890625 4.226563 4.222657v18.898437c0 2.335937-1.890625 4.226563-4.226563 4.226563h-260.40625c-2.332031 0-4.226562-1.890626-4.226562-4.226563v-18.898437c0-2.332032 1.894531-4.222657 4.226562-4.222657zm0 0" fill="#dfede7"/><path d="m286.132812 194.675781h-55.097656v27.347657h55.097656c2.332032 0 4.222657-1.890626 4.222657-4.222657v-18.902343c0-2.332032-1.890625-4.222657-4.222657-4.222657zm0 0" fill="#ceddd6"/></svg>